<?xml version="1.0" encoding="UTF-8" standalone="no"?>
<!-- Created with Inkscape (http://www.inkscape.org/) -->

<svg
   width="32"
   height="32"
   viewBox="0 0 32 32"
   version="1.1"
   id="svg5"
   xmlns="http://www.w3.org/2000/svg"
   xmlns:svg="http://www.w3.org/2000/svg">
  <defs
     id="defs2">
    <filter
       style="color-interpolation-filters:sRGB"
       id="filter937"
       x="-0.062124681"
       y="-0.050440695"
       width="1.1242491"
       height="1.1008813">
      <feGaussianBlur
         stdDeviation="16.357321"
         id="feGaussianBlur939" />
    </filter>
  </defs>
  <g
     id="layer1">
    <rect
       style="fill:#000000;fill-opacity:1;stroke:none;stroke-width:0.839893;stroke-linejoin:miter;stroke-miterlimit:50;stroke-dasharray:none;stroke-opacity:1;paint-order:stroke fill markers"
       id="rect3171"
       width="32"
       height="32"
       x="0"
       y="0" />
    <path
       id="path372-2"
       style="color:#000000;mix-blend-mode:normal;fill:#000000;fill-opacity:1;stroke:#000000;stroke-width:56.693;stroke-linejoin:miter;stroke-miterlimit:90;stroke-dasharray:none;stroke-opacity:1;paint-order:markers stroke fill;filter:url(#filter937)"
       d="m 1287.7576,337.41388 -18.4766,68.95703 -18.4766,68.95703 -13.2773,49.5508 c -35.0089,-7.01841 -70.5037,-10.64294 -105.9922,-10.86134 -79.2182,-0.48767 -158.39639,15.92947 -232.01759,49.08199 -134.6215,60.62171 -239.6529,172.24491 -291.9785,310.30281 a 7.5007498,7.5007498 0 0 0 -0.01,0.013 c -2.3784,6.3136 -4.5707,12.6598 -6.707,19.0136 l -49.4922,-13.2616 -18.4765,68.9551 49.5761,13.2832 c -42.4144,213.4997 43.8339,436.1985 226.7383,564.2754 a 7.5007498,7.5007498 0 0 0 8.9746,-12.0079 C 655.77221,1384.2579 585.92561,1173.3255 634.60331,975.3865 l 36.1679,9.6915 68.9551,18.4765 68.959,18.4765 68.957,18.4766 68.9556,18.4766 68.95899,18.4765 -18.47889,68.957 68.95699,18.4765 -18.4766,68.9571 -18.4785,68.959 -18.4765,68.9551 -18.47659,68.959 -18.4765,68.955 -18.4785,68.959 -18.4766,68.955 -18.4766,68.9572 -18.4765,68.957 68.9574,18.4771 18.4785,-68.959 18.47649,-68.9551 18.4766,-68.957 18.4766,-68.957 18.4765,-68.9571 18.4785,-68.959 18.4766,-68.9551 18.4766,-68.959 18.4765,-68.955 68.957,18.4766 18.4766,-68.959 68.959,18.4785 68.9551,18.4765 68.9589,18.4766 68.9551,18.4766 68.9571,18.4766 68.9574,18.477 68.957,18.4766 18.4766,-68.957 -68.9551,-18.4766 -68.959,-18.4766 -68.957,-18.4765 -68.9551,-18.4766 -68.959,-18.4785 -68.9551,-18.4766 -68.959,-18.4765 18.4766,-68.957 -68.9551,-18.4766 18.4766,-68.9571 18.4766,-68.957 18.4789,-68.95689 18.4765,-68.95703 18.4766,-68.95702 9.8011,-36.58195 c 13.7861,3.97094 27.4847,8.37369 41,13.49613 175.2689,66.5016 302.0636,220.99056 333.1075,405.86316 a 7.5007498,7.5007498 0 0 0 14.8554,-2.0253 C 1659.6192,803.5062 1521.8475,624.6747 1325.3982,550.14244 a 7.5007498,7.5007498 0 0 0 0,-5e-4 c -6.2748,-2.37826 -12.6129,-4.50739 -18.9472,-6.65038 l 13.3125,-49.68553 18.4789,-68.95698 18.4766,-68.95698 z m -28.379,657.56642 68.959,18.4785 18.4766,-68.959 -68.957,-18.4766 z m 87.4356,-50.4805 68.957,18.4766 18.4766,-68.9551 -68.957,-18.4765 z m -142.8652,257.3516 -18.4766,68.955 68.9574,18.4771 18.4766,-68.957 z m 50.4804,87.4336 -18.4765,68.957 68.955,18.4766 18.479,-68.957 z m -257.35149,-142.8652 -68.9571,-18.4766 -18.4765,68.957 68.957,18.4766 z m -87.4336,50.4804 -68.957,-18.4766 -18.4766,68.9571 68.9551,18.4765 z M 1156.3376,574.47836 c 22.1949,0.4075 44.3636,2.36866 66.4043,5.58204 l -8.8906,33.17961 -18.4785,68.95899 -18.4766,68.95513 -18.4765,68.95897 -18.4766,68.9551 -18.4785,68.959 -68.955,-18.4766 -18.4766,68.9551 -68.95899,-18.4766 -68.9551,-18.4765 -68.957,-18.4766 -68.9574,-18.4771 -68.9571,-18.4765 -32.7851,-8.7851 c 50.5289,-127.28382 148.5117,-230.10689 273.5781,-286.42583 71.76069,-32.31469 149.08729,-47.84937 226.29689,-46.43162 z m -103.8281,365.07224 18.4766,-68.959 -68.957,-18.4766 -18.47849,68.9571 z m -50.4804,-87.4356 18.4765,-68.95701 -68.95699,-18.47649 -18.4766,68.957 z"
       transform="scale(0.01481482)" />
    <path
       id="path372"
       style="color:#000000;fill:#ffffff;stroke:none;stroke-width:1.17117;stroke-linejoin:miter;stroke-miterlimit:90;stroke-dasharray:none;stroke-opacity:1;paint-order:markers stroke fill"
       d="M 19.295571,0.85161075 18.913879,2.2761387 18.532186,3.7006664 18.2579,4.7242966 C 17.534679,4.579309 16.801418,4.5044326 16.068292,4.4999208 14.431787,4.4898465 12.796107,4.828995 11.275226,5.5138663 8.4941886,6.7662016 6.3244286,9.0721356 5.2434764,11.924162 a 0.15495197,0.15495197 0 0 0 -1.332e-4,2.83e-4 c -0.049135,0.130427 -0.094424,0.261529 -0.1385548,0.392787 l -1.0224129,-0.273963 -0.3816927,1.424489 1.0241543,0.274407 c -0.8762037,4.410518 0.9055308,9.011074 4.6840065,11.656911 A 0.15495197,0.15495197 0 0 0 9.5942434,25.151014 C 6.2398915,22.477521 4.7969861,18.120036 5.8025798,14.030974 l 0.7471646,0.200209 1.4244879,0.381692 1.4245685,0.381691 1.4245272,0.381694 1.424488,0.381735 1.424568,0.381691 -0.381733,1.424529 1.424528,0.381691 -0.381693,1.42453 -0.381732,1.424567 -0.381692,1.424486 -0.381693,1.424569 -0.381692,1.424486 -0.381733,1.424569 -0.381692,1.424486 -0.381693,1.424532 -0.381693,1.424527 1.424529,0.381732 0.381732,-1.424569 0.381693,-1.424487 0.381692,-1.424527 0.381693,-1.424528 0.381692,-1.424529 0.381733,-1.424569 0.381693,-1.424487 0.381692,-1.424568 0.381692,-1.424487 1.424528,0.381693 0.381693,-1.424569 1.424569,0.381732 1.424489,0.381693 1.424567,0.381694 1.424487,0.381692 1.424528,0.381693 1.424529,0.381732 1.424527,0.381693 0.381694,-1.424527 -1.424489,-0.381693 -1.424568,-0.381694 -1.424527,-0.381692 -1.424489,-0.381693 -1.424568,-0.381733 -1.424488,-0.381692 -1.424568,-0.381692 0.381692,-1.424528 -1.424487,-0.381693 0.381691,-1.424529 0.381694,-1.424529 0.381732,-1.4245264 0.381693,-1.4245279 0.381692,-1.4245278 0.202467,-0.7557187 c 0.284794,0.082032 0.567783,0.1729848 0.846985,0.2788054 3.620739,1.3738034 6.240089,4.5652664 6.8814,8.3844024 a 0.15495197,0.15495197 0 0 0 0.306887,-0.04184 C 26.977561,10.480238 24.131448,6.7859012 20.073158,5.2461992 a 0.15495197,0.15495197 0 0 0 0,-4.43e-5 C 19.943529,5.1970242 19.812596,5.1530402 19.68174,5.1087699 l 0.275013,-1.0264134 0.381732,-1.424529 0.381692,-1.424527 z m -0.586258,13.58413725 1.424569,0.381732 0.381692,-1.424569 -1.424528,-0.381693 z m 1.806261,-1.042837 1.424527,0.381693 0.381694,-1.424489 -1.424528,-0.381691 z m -2.951339,5.316421 -0.381693,1.424488 1.424528,0.381733 0.381693,-1.424529 z m 1.042835,1.806221 -0.381692,1.424528 1.424488,0.381693 0.381733,-1.42453 z m -5.316419,-2.951338 -1.424528,-0.381693 -0.381692,1.424526 1.424528,0.381695 z m -1.80622,1.042834 -1.424528,-0.381691 -0.3816923,1.424527 1.4244873,0.381692 z m 5.09624,-12.8581137 c 0.458507,0.00842 0.916472,0.048932 1.371793,0.1153149 L 17.7688,6.5496811 17.387067,7.9742493 17.005375,9.3987381 16.623682,10.823307 16.24199,12.247794 15.860257,13.672362 14.435769,13.29067 14.054077,14.715157 12.629508,14.333465 11.205021,13.951773 9.7804929,13.57008 8.3559654,13.188346 6.9314369,12.806655 6.2541547,12.625169 C 7.2979911,9.9957157 9.3221396,7.8715766 11.905786,6.708129 13.388231,6.0405653 14.985661,5.719647 16.580671,5.7489353 Z m -2.144902,7.5417347 0.381692,-1.424569 -1.424527,-0.381693 -0.381733,1.424529 z m -1.042835,-1.806262 0.381692,-1.424527 -1.424528,-0.3816916 -0.381692,1.4245276 z" />
  </g>
</svg>
